<?xml version="1.0" encoding="UTF-8" standalone="no"?><!DOCTYPE svg PUBLIC "-//W3C//DTD SVG 1.1//EN" "http://www.w3.org/Graphics/SVG/1.1/DTD/svg11.dtd"><svg width="100%" height="100%" viewBox="0 0 900 320" version="1.1" xmlns="http://www.w3.org/2000/svg" xmlns:xlink="http://www.w3.org/1999/xlink" xml:space="preserve" xmlns:serif="http://www.serif.com/" style="fill-rule:evenodd;clip-rule:evenodd;stroke-linecap:round;stroke-linejoin:round;stroke-miterlimit:1.41421;"><path d="M99,40c0,0 -85,86.495 -85,155c0,46.913 38.087,85 85,85c46.913,0 85,-38.087 85,-85c0,-68.505 -85,-155 -85,-155Z" style="fill:#1d252d;"/><clipPath id="_clip1"><path d="M99,40c0,0 -85,86.495 -85,155c0,46.913 38.087,85 85,85c46.913,0 85,-38.087 85,-85c0,-68.505 -85,-155 -85,-155Z"/></clipPath><g clip-path="url(#_clip1)"><g><path d="M51.8,178.507c2.737,26.803 -47.522,65.995 -47.522,109.557c0,23.145 18.791,41.936 41.936,41.936c23.145,0 41.935,-18.791 41.935,-41.936c0,-43.562 -27.456,-93.013 -36.349,-109.557Z" style="fill:url(#_Linear2);"/><path d="M112.958,153.678c-11.174,10.937 -66.744,84.578 -66.744,120.826c0,30.629 24.867,55.496 55.496,55.496c30.629,0 55.496,-24.867 55.496,-55.496c0,-36.248 -49.848,-100.599 -44.248,-120.826Z" style="fill:url(#_Linear3);"/><path d="M149.236,178.507c-11.783,12.342 -54.916,73.155 -54.916,104.507c0,25.932 21.053,46.986 46.985,46.986c25.933,0 46.986,-21.054 46.986,-46.986c0,-31.352 -44.789,-82.083 -39.055,-104.507Z" style="fill:url(#_Linear4);"/></g></g><path d="M99,40c0,0 -85,86.495 -85,155c0,46.913 38.087,85 85,85c46.913,0 85,-38.087 85,-85c0,-68.505 -85,-155 -85,-155Z" style="fill:none;stroke:#1d252d;stroke-width:25px;"/><text x="313.011px" y="258.643px" style="font-family:'LucidaGrande-Bold', 'Lucida Grande', sans-serif;font-weight:600;font-size:260px;fill:#1d252d;">Flint</text><defs><linearGradient id="_Linear2" x1="0" y1="0" x2="1" y2="0" gradientUnits="userSpaceOnUse" gradientTransform="matrix(83.8713,0,0,151.493,4.27817,254.253)"><stop offset="0" style="stop-color:#dd583d;stop-opacity:1"/><stop offset="0.47" style="stop-color:#e14a41;stop-opacity:1"/><stop offset="1" style="stop-color:#ed274b;stop-opacity:1"/></linearGradient><linearGradient id="_Linear3" x1="0" y1="0" x2="1" y2="0" gradientUnits="userSpaceOnUse" gradientTransform="matrix(110.992,0,0,176.322,46.2138,241.839)"><stop offset="0" style="stop-color:#c92a39;stop-opacity:1"/><stop offset="0.43" style="stop-color:#cf2633;stop-opacity:1"/><stop offset="1" style="stop-color:#dc1c26;stop-opacity:1"/></linearGradient><linearGradient id="_Linear4" x1="0" y1="0" x2="1" y2="0" gradientUnits="userSpaceOnUse" gradientTransform="matrix(93.9712,0,0,151.493,94.3198,254.253)"><stop offset="0" style="stop-color:#ac2b37;stop-opacity:1"/><stop offset="0.55" style="stop-color:#cb0d17;stop-opacity:1"/><stop offset="1" style="stop-color:#d8000a;stop-opacity:1"/></linearGradient></defs></svg>